# xmcd
#
# Track frame offsets: 
#        150
#        24144
#        55579
#        88658
#        106636
#        140809
#        151204
#
# Disc length: 2436 seconds
#
# Revision: 3
# Processed by: cddbd v1.5.2PL0 Copyright (c) Steve Scherf et al.
# Submitted via: ExactAudioCopyFreeDBPlugin 1.0
#
DISCID=48098207
DTITLE=The Love Unlimited Orchestra - My Musical Bouquet
DYEAR=1978
DGENRE=Soul
TTITLE0=Don't You Know How Much I Love You
TTITLE1=Stay Please And Make Love To Me
TTITLE2=Hey Look At Me, I'm In Love
TTITLE3=Love You, Ooh It's True I Do
TTITLE4=Whisper Softly
TTITLE5=Enter Love's Interlude
TTITLE6=Can't You See
EXTD=YEAR: 1978
EXTT0=
EXTT1=
EXTT2=
EXTT3=
EXTT4=
EXTT5=
EXTT6=
PLAYORDER=
